<svg preserveAspectRatio="xMidYMid meet" viewBox="254.88 306.71999999999997 572.4 481.68" xmlns="http://www.w3.org/2000/svg" version="1.0" style="max-height: 500px" width="572.4" height="481.68">

<g stroke="none" fill="#ffffff" transform="translate(0.000000,1080.000000) scale(0.100000,-0.100000)">
<path d="M2922 7685 c-40 -14 -89 -36 -110 -49 -92 -58 -176 -167 -211 -273&#10;l-21 -63 2 -2007 3 -2008 23 -56 c56 -134 178 -249 314 -293 l77 -26 2401 0&#10;2401 0 77 26 c136 44 258 159 314 293 l23 56 3 2008 2 2007 -21 63 c-35 106&#10;-119 215 -211 273 -21 13 -71 35 -112 49 l-75 25 -2403 0 -2403 -1 -73 -24z&#10;m4656 -105 c208 -27 384 -191 428 -399 21 -99 21 -3643 0 -3742 -44 -207 -221&#10;-372 -427 -399 -100 -13 -4258 -13 -4358 0 -206 27 -383 192 -427 399 -21 99&#10;-21 3643 0 3742 33 153 133 283 272 350 52 25 106 43 146 48 90 12 4276 13&#10;4366 1z"/>
<path d="M6570 7115 c-15 -19 -4 -52 21 -60 38 -12 65 35 37 63 -16 16 -43 15&#10;-58 -3z"/>
<path d="M6938 7089 c-48 -28 -68 -46 -68 -60 0 -12 3 -19 8 -17 4 2 35 18 70&#10;37 49 27 62 39 62 57 0 13 -1 24 -2 24 -2 0 -33 -18 -70 -41z"/>
<path d="M4930 7020 c0 -38 -2 -40 -30 -40 -25 0 -30 -4 -30 -25 0 -21 5 -25&#10;30 -25 l30 0 0 -119 c0 -147 8 -162 93 -169 56 -4 57 -4 57 22 0 24 -4 26 -40&#10;26 -53 0 -60 16 -60 139 l0 101 50 0 c47 0 50 2 50 25 0 23 -3 25 -50 25 l-50&#10;0 0 40 c0 36 -2 40 -25 40 -22 0 -25 -4 -25 -40z"/>
<path d="M3875 6978 c-147 -30 -172 -257 -35 -325 24 -13 58 -23 75 -23 41 0&#10;114 38 139 73 30 40 34 150 8 197 -36 66 -105 95 -187 78z m105 -67 c32 -23&#10;53 -85 45 -130 -4 -20 -21 -49 -41 -69 -31 -31 -38 -34 -77 -29 -62 8 -97 51&#10;-97 118 0 63 22 106 63 125 37 16 71 11 107 -15z"/>
<path d="M4302 6979 c-18 -4 -44 -17 -57 -29 l-23 -22 -4 24 c-2 17 -9 23 -28&#10;23 l-25 0 -3 -167 -2 -168 30 0 30 0 0 103 c0 124 16 164 72 185 30 12 41 12&#10;64 0 44 -21 54 -51 54 -175 l0 -113 30 0 30 0 0 103 c0 56 -5 120 -10 141 -16&#10;72 -82 111 -158 95z"/>
<path d="M5905 6978 c-147 -30 -172 -257 -35 -325 24 -13 58 -23 75 -23 47 1&#10;112 35 135 72 26 43 25 48 -9 48 -21 0 -32 -6 -36 -20 -8 -26 -55 -50 -96 -50&#10;-22 0 -41 10 -65 34 -30 30 -34 40 -34 85 0 67 22 109 67 127 46 20 86 10 117&#10;-27 16 -18 34 -29 50 -29 31 0 32 5 6 47 -32 53 -99 76 -175 61z"/>
<path d="M6299 6980 c-80 -14 -129 -78 -129 -172 0 -92 52 -158 137 -174 70&#10;-13 173 43 173 95 0 30 -43 28 -59 -3 -27 -50 -102 -61 -150 -21 -74 63 -60&#10;186 26 221 43 19 93 5 121 -33 13 -18 25 -24 45 -21 26 3 26 3 11 35 -28 57&#10;-98 86 -175 73z"/>
<path d="M6849 6980 c-83 -14 -129 -78 -129 -178 0 -45 5 -67 23 -93 26 -39&#10;97 -79 142 -79 50 0 117 40 142 85 42 74 20 199 -42 239 -33 22 -93 33 -136&#10;26z m99 -66 c30 -19 42 -53 42 -114 0 -65 -36 -109 -95 -117 -34 -4 -46 -1&#10;-72 21 -120 101 -4 294 125 210z"/>
<path d="M3440 6958 c-51 -35 -70 -69 -77 -130 -13 -129 92 -222 214 -189 42&#10;12 103 68 103 96 0 26 -42 16 -69 -15 -47 -56 -133 -50 -171 12 -43 72 -15&#10;175 54 198 47 15 103 -2 118 -36 8 -17 19 -24 40 -24 26 0 29 3 22 23 -16 55&#10;-70 87 -147 87 -40 0 -63 -6 -87 -22z"/>
<path d="M4579 6951 c-34 -34 -38 -77 -11 -111 10 -12 52 -33 97 -48 67 -23&#10;81 -31 83 -50 10 -71 -115 -85 -147 -16 -7 16 -19 24 -36 24 -59 0 -4 -92 67&#10;-110 87 -24 178 22 178 90 0 61 -28 86 -125 109 -60 15 -75 26 -75 56 0 50&#10;103 56 125 7 7 -15 19 -22 38 -22 25 0 28 3 22 23 -4 12 -20 34 -36 50 -25 23&#10;-38 27 -90 27 -54 0 -64 -3 -90 -29z"/>
<path d="M5157 6974 c-4 -4 -7 -81 -7 -171 l0 -163 29 0 29 0 4 114 c4 131 13&#10;149 85 168 36 9 43 14 43 34 0 20 -5 24 -27 24 -32 0 -92 -34 -94 -52 -1 -7&#10;-4 1 -8 17 -6 29 -37 46 -54 29z"/>
<path d="M5393 6964 c-12 -31 4 -238 20 -270 17 -32 69 -64 106 -64 30 0 83&#10;24 101 45 14 17 15 16 20 -6 4 -17 14 -25 33 -27 l27 -3 -2 168 -3 168 -27 3&#10;-26 3 -4 -121 -3 -122 -33 -29 c-40 -36 -81 -38 -119 -5 -28 24 -28 26 -31&#10;150 l-4 126 -24 0 c-14 0 -27 -7 -31 -16z"/>
<path d="M6577 6973 c-4 -3 -7 -80 -7 -170 l0 -163 30 0 30 0 0 170 0 170 -23&#10;0 c-13 0 -27 -3 -30 -7z"/>
<path d="M7130 6810 l0 -170 29 0 29 0 4 119 c3 110 5 122 27 145 48 51 121&#10;42 146 -19 10 -23 15 -70 15 -140 l0 -105 26 0 26 0 -4 141 -3 141 -33 29&#10;c-27 24 -41 29 -86 29 -44 0 -60 -5 -85 -26 l-30 -25 -7 25 c-4 19 -13 26 -30&#10;26 l-24 0 0 -170z"/>
<path d="M3951 6170 c-80 -11 -190 -44 -251 -75 -176 -89 -321 -274 -376 -480&#10;-26 -97 -27 -379 -1 -475 57 -216 218 -409 412 -495 113 -50 169 -59 335 -59&#10;140 0 163 3 235 27 224 74 397 253 440 455 l7 32 -132 0 c-116 0 -131 -2 -136&#10;-17 -56 -180 -212 -283 -425 -283 -136 0 -245 45 -339 140 -101 102 -148 220&#10;-157 395 -16 297 112 517 344 594 69 23 205 28 282 10 123 -28 242 -122 278&#10;-219 l21 -55 131 -3 c72 -1 131 1 131 6 0 17 -38 118 -60 162 -75 149 -239&#10;275 -416 320 -91 24 -234 32 -323 20z"/>
<path d="M5749 6170 c-135 -21 -237 -76 -328 -177 l-59 -65 -7 106 -7 106&#10;-119 0 -119 0 2 -762 3 -763 127 -3 127 -3 4 473 c3 414 6 480 21 533 43 144&#10;121 247 230 300 50 24 76 30 152 33 184 8 300 -68 356 -237 22 -64 23 -82 28&#10;-581 l5 -515 127 -3 126 -3 4 468 c5 505 6 515 63 641 32 71 124 165 194 200&#10;51 25 66 27 171 27 100 0 121 -3 162 -23 91 -45 148 -120 186 -245 13 -44 16&#10;-133 19 -559 l4 -508 125 0 125 0 -4 548 c-4 604 -3 593 -70 732 -36 73 -119&#10;163 -187 203 -25 14 -81 38 -125 53 -68 23 -97 27 -190 27 -130 1 -206 -17&#10;-307 -70 -82 -43 -157 -108 -203 -175 l-33 -49 -25 44 c-66 112 -179 197 -308&#10;230 -73 20 -202 27 -270 17z"/>
<path d="M5440 3890 l0 -99 -36 24 c-36 24 -58 29 -119 25 -106 -7 -170 -153&#10;-115 -261 46 -89 165 -115 240 -53 l30 26 0 -26 c0 -22 4 -26 30 -26 l30 0 0&#10;245 0 245 -30 0 -30 0 0 -100z m-50 -119 c32 -22 52 -83 44 -128 -19 -103&#10;-141 -136 -204 -55 -27 34 -27 115 0 159 31 52 104 63 160 24z"/>
<path d="M5980 3745 l0 -245 25 0 25 0 0 245 0 245 -25 0 -25 0 0 -245z"/>
<path d="M4282 3839 c-18 -4 -41 -14 -52 -24 -17 -16 -19 -15 -25 4 -4 14 -15&#10;21 -31 21 l-24 0 0 -170 0 -170 29 0 29 0 4 120 c3 115 4 121 30 147 36 36 92&#10;37 119 4 16 -20 19 -41 19 -147 l0 -124 30 0 30 0 0 100 c0 143 25 194 96 194&#10;22 0 42 -8 57 -22 20 -20 22 -34 26 -147 l3 -125 25 0 25 0 -4 141 -3 141 -33&#10;29 c-27 25 -41 29 -87 29 -46 0 -60 -5 -87 -29 l-32 -28 -20 24 c-25 28 -78&#10;42 -124 32z"/>
<path d="M4879 3840 c-83 -14 -129 -78 -129 -178 0 -45 5 -67 23 -93 26 -39&#10;97 -79 142 -79 50 0 117 40 142 85 42 74 20 199 -42 239 -33 22 -93 33 -136&#10;26z m99 -66 c30 -19 42 -53 42 -114 0 -65 -36 -109 -95 -117 -34 -4 -46 -1&#10;-72 21 -120 101 -4 294 125 210z"/>
<path d="M5582 3706 c3 -118 6 -138 24 -163 44 -59 134 -67 194 -17 l30 26 0&#10;-26 c0 -21 5 -26 25 -26 l25 0 0 170 0 170 -25 0 -25 0 0 -102 c0 -78 -4 -112&#10;-18 -138 -21 -43 -62 -64 -108 -56 -52 10 -64 43 -64 181 l0 115 -31 0 -31 0&#10;4 -134z"/>
<path d="M6183 3820 c-52 -32 -73 -90 -31 -90 12 0 33 14 48 32 23 27 34 33&#10;70 33 48 0 80 -29 80 -71 0 -23 -3 -24 -69 -24 -111 0 -161 -31 -161 -101 0&#10;-102 135 -144 218 -67 l22 21 0 -26 c0 -22 5 -27 25 -27 l25 0 0 120 c0 138&#10;-12 180 -59 204 -43 22 -128 21 -168 -4z m167 -180 c0 -75 -89 -126 -148 -84&#10;-17 12 -22 24 -20 47 4 41 35 57 111 57 50 0 57 -2 57 -20z"/>
<path d="M6500 3670 l0 -170 24 0 c23 0 24 2 27 108 5 131 17 156 84 173 38&#10;10 45 15 45 35 0 36 -50 33 -95 -7 l-35 -31 0 31 c0 26 -4 31 -25 31 l-25 0 0&#10;-170z"/>
</g>
</svg>